<?xml version="1.0" standalone="no"?>
<!DOCTYPE svg PUBLIC "-//W3C//DTD SVG 20010904//EN"
 "http://www.w3.org/TR/2001/REC-SVG-20010904/DTD/svg10.dtd">
<svg version="1.0" xmlns="http://www.w3.org/2000/svg"
 width="1024.000000pt" height="1024.000000pt" viewBox="0 0 1024.000000 1024.000000"
 preserveAspectRatio="xMidYMid meet">
<metadata>
Created by potrace 1.16, written by Peter Selinger 2001-2019
</metadata>
<g transform="translate(0.000000,1024.000000) scale(0.100000,-0.100000)"
fill="#000000" stroke="none">
<path d="M3120 6984 c-36 -7 -75 -19 -87 -25 -12 -6 -30 -9 -40 -5 -9 4 -14 4
-10 0 4 -4 -26 -24 -66 -44 -67 -34 -159 -93 -199 -127 -14 -13 -17 -12 -27 4
-6 10 -11 13 -11 6 0 -6 5 -15 10 -18 7 -4 -5 -24 -27 -48 -77 -84 -171 -227
-194 -297 -27 -82 -59 -161 -56 -137 2 15 1 27 -4 27 -4 0 -7 -28 -7 -62 1
-35 -2 -92 -7 -128 -10 -84 -7 -286 5 -325 11 -38 21 -99 23 -147 1 -20 5 -34
9 -32 4 3 12 -12 17 -33 8 -27 7 -41 -2 -52 -11 -14 -10 -14 6 -2 10 8 17 9
17 3 0 -6 14 -40 30 -76 17 -37 28 -71 24 -78 -4 -6 -3 -8 3 -5 6 4 19 -10 28
-31 74 -155 283 -412 560 -686 66 -66 119 -123 117 -128 -1 -5 1 -7 6 -4 4 2
62 -43 127 -101 66 -58 134 -115 150 -126 17 -12 39 -30 50 -40 11 -11 36 -31
55 -45 19 -15 37 -30 40 -33 10 -12 248 -195 298 -229 28 -19 50 -40 47 -47
-2 -7 2 -10 9 -7 7 3 20 -1 27 -8 22 -21 92 -65 116 -72 29 -9 84 15 146 64
28 23 57 38 64 35 8 -2 11 -1 8 4 -7 12 35 42 48 34 6 -3 7 -1 3 5 -7 12 32
38 49 33 5 -1 7 1 3 5 -10 10 102 95 115 87 6 -3 7 -1 3 6 -4 6 0 14 9 17 11
5 44 -21 112 -87 136 -134 143 -142 136 -152 -3 -6 -1 -7 6 -3 7 5 31 -9 59
-36 26 -23 68 -61 94 -83 33 -28 43 -42 35 -48 -8 -6 -7 -7 4 -4 18 6 69 -37
69 -58 0 -8 4 -17 10 -20 6 -4 7 1 3 12 -6 16 -5 16 10 4 9 -7 14 -17 11 -22
-3 -5 3 -6 12 -2 11 4 15 2 11 -4 -4 -6 2 -13 13 -16 11 -3 19 -11 18 -17 -2
-7 6 -14 16 -16 10 -1 26 -11 35 -20 15 -17 15 -17 -4 -3 -18 13 -19 13 -6 -3
7 -10 17 -15 22 -12 5 3 16 -2 25 -11 9 -8 32 -27 52 -42 65 -48 107 -87 104
-96 -1 -5 2 -6 7 -3 11 7 87 -53 83 -66 -1 -5 2 -7 8 -3 5 3 10 1 10 -6 0 -7
3 -10 6 -6 3 3 42 -21 87 -54 44 -32 85 -59 89 -59 5 0 7 -3 5 -7 -3 -5 9 -9
26 -10 32 -3 86 18 126 49 13 10 28 15 34 11 5 -3 7 -2 4 4 -3 5 8 20 26 33
18 13 37 28 42 32 48 39 173 137 195 153 37 27 97 76 125 100 12 11 39 34 60
50 94 76 304 261 347 307 16 17 33 26 40 22 7 -4 8 -3 4 4 -9 15 61 85 76 76
7 -4 8 -3 4 4 -4 6 22 40 60 79 36 37 111 122 167 188 55 66 104 122 107 125
4 3 24 32 45 65 22 33 43 62 47 63 5 2 8 8 8 13 0 6 8 19 18 29 24 26 153 282
167 333 2 4 3 8 5 10 1 1 3 9 6 17 2 8 13 49 25 90 31 111 36 148 38 303 1
100 -3 164 -15 217 -9 41 -16 93 -16 114 0 26 -3 35 -8 25 -7 -11 -10 -9 -16
6 -4 11 -20 52 -36 92 -16 40 -26 78 -22 84 4 7 3 9 -3 6 -6 -4 -29 24 -53 61
-51 79 -194 226 -265 271 -32 21 -41 30 -25 26 21 -5 22 -4 7 5 -9 6 -21 9
-26 6 -5 -4 -40 8 -78 25 -37 17 -90 37 -118 44 -73 19 -231 36 -300 31 -64
-5 -232 -39 -262 -54 -10 -5 -43 -21 -73 -36 -57 -28 -91 -47 -100 -56 -3 -3
-38 -29 -77 -59 -40 -29 -73 -56 -73 -61 0 -4 -7 -11 -16 -14 -8 -3 -13 -2
-10 3 3 4 1 23 -4 42 -5 19 -11 61 -15 94 -3 33 -20 98 -37 145 -16 47 -30 99
-30 115 -1 17 -3 24 -5 17 -3 -7 -24 18 -48 57 -23 38 -59 90 -79 116 -19 26
-33 52 -30 56 3 5 1 8 -4 7 -5 -2 -30 16 -56 39 -58 53 -170 133 -185 133 -6
0 -11 4 -11 9 0 11 -70 41 -180 77 -80 27 -94 29 -260 28 -172 0 -177 -1 -269
-33 -102 -35 -150 -59 -251 -126 -73 -49 -207 -174 -266 -250 -21 -27 -42 -52
-45 -55 -3 -3 -8 -11 -10 -18 -3 -7 -20 7 -41 35 -92 120 -256 268 -363 327
-76 42 -208 94 -286 112 -54 13 -305 12 -369 -2z m365 -208 c52 -11 240 -110
237 -124 -1 -8 2 -10 8 -7 14 9 52 -24 43 -38 -4 -6 -1 -7 6 -3 15 10 53 -23
44 -38 -3 -6 -2 -8 2 -3 11 10 46 -23 38 -36 -3 -5 -2 -7 3 -4 6 3 16 1 24 -4
13 -7 13 -10 1 -18 -9 -6 -10 -11 -2 -15 6 -4 11 -2 11 5 0 8 4 8 15 -1 8 -7
12 -16 9 -21 -3 -5 -1 -8 4 -7 14 4 97 -93 86 -100 -6 -4 -3 -14 8 -24 10 -10
18 -14 18 -10 0 4 -5 13 -12 20 -7 7 -10 12 -7 12 3 0 29 -29 57 -65 29 -36
59 -65 68 -65 9 0 12 -5 8 -12 -6 -10 -4 -10 7 0 7 6 23 12 36 12 17 0 42 26
100 103 96 127 162 199 176 190 6 -4 7 -1 3 6 -13 21 143 144 239 190 127 61
178 72 309 70 103 -1 134 -5 209 -30 97 -32 202 -93 191 -111 -4 -7 -3 -8 5
-4 7 4 33 -12 63 -39 65 -59 178 -200 123 -155 -16 13 -20 3 -6 -18 4 -7 13
-12 20 -10 15 4 68 -93 78 -146 2 -11 7 -24 12 -30 16 -21 20 -60 8 -75 -9
-12 -9 -13 1 -7 7 4 12 2 13 -6 0 -7 3 -22 5 -33 9 -33 10 -235 2 -235 -5 0
-8 3 -8 8 0 13 -155 182 -168 182 -3 0 -17 11 -31 24 -15 13 -59 46 -98 74
-40 27 -71 51 -68 53 2 3 -4 5 -13 6 -21 1 -183 69 -178 74 3 2 -10 3 -27 3
-18 -1 -36 1 -42 5 -34 20 -340 18 -374 -4 -4 -2 -23 -7 -41 -10 -46 -8 -166
-61 -218 -97 -23 -16 -47 -26 -52 -23 -6 4 -9 3 -8 -2 2 -5 -22 -31 -52 -58
-30 -26 -68 -63 -84 -82 -15 -18 -32 -31 -35 -28 -4 2 -8 -2 -8 -9 0 -7 -21
-45 -46 -83 -26 -39 -47 -75 -47 -79 0 -5 -13 -35 -29 -68 -18 -36 -31 -53
-35 -45 -3 8 -4 5 -1 -6 3 -12 -2 -47 -10 -80 -9 -32 -18 -75 -21 -94 -4 -20
-7 -43 -9 -51 -2 -8 -6 -68 -10 -132 -6 -93 -10 -115 -21 -111 -18 7 -18 2 2
-33 14 -26 15 -26 10 -5 -2 13 -1 20 4 15 4 -5 11 -29 14 -54 17 -131 34 -201
72 -303 18 -48 18 -52 -2 -37 -13 12 -14 10 -3 -14 7 -14 15 -22 19 -17 9 15
73 -116 64 -131 -4 -7 -4 -10 1 -6 4 4 27 -23 51 -60 24 -37 64 -95 89 -129
44 -61 54 -80 36 -68 -5 3 -12 1 -16 -4 -3 -6 3 -8 14 -6 22 4 43 -16 39 -36
-2 -7 2 -13 9 -14 14 0 46 -33 55 -57 8 -20 -55 -73 -74 -62 -7 4 -8 3 -4 -4
9 -16 -45 -63 -64 -56 -8 3 -12 2 -8 -1 9 -9 -127 -125 -146 -125 -6 0 -138
100 -171 129 -11 9 -40 31 -65 49 -25 17 -58 42 -75 56 -16 14 -47 40 -67 57
-21 17 -35 36 -31 42 3 6 1 7 -6 3 -7 -4 -26 5 -45 21 -19 15 -53 44 -76 63
-24 19 -48 40 -54 45 -91 81 -110 102 -108 110 2 5 0 7 -4 3 -9 -10 -100 73
-96 87 2 6 0 7 -4 2 -10 -9 -65 43 -58 55 3 5 0 7 -8 6 -7 -2 -12 3 -10 10 1
8 -2 11 -6 8 -13 -8 -84 63 -76 76 4 7 2 8 -4 4 -16 -9 -191 179 -300 321 -61
81 -73 101 -50 87 7 -4 8 -3 4 5 -4 6 -11 9 -16 6 -11 -7 -42 43 -34 57 4 6 3
8 -4 5 -21 -14 -135 207 -172 333 -72 243 -59 474 38 680 20 41 38 77 41 80 3
3 12 17 20 32 20 39 117 138 181 184 80 59 159 94 255 114 44 9 262 6 310 -4z
m1586 -666 c97 -21 226 -78 222 -98 -2 -6 4 -9 12 -6 19 8 158 -103 149 -119
-4 -7 -3 -9 1 -4 11 9 46 -23 39 -35 -3 -4 0 -7 6 -6 11 3 49 -38 166 -174
l23 -27 -26 -63 c-38 -95 -43 -103 -55 -87 -8 11 -9 10 -4 -4 3 -10 -1 -33
-10 -50 -25 -49 -132 -204 -189 -274 -27 -34 -60 -76 -73 -93 -13 -16 -30 -30
-38 -30 -9 0 -12 -5 -8 -11 9 -14 -383 -402 -398 -393 -6 4 -8 3 -4 -4 3 -6
-19 -31 -51 -57 -32 -26 -62 -53 -66 -61 -4 -8 -13 -14 -20 -14 -6 0 -34 -21
-61 -47 -28 -27 -47 -44 -43 -39 3 5 -1 16 -11 25 -10 9 -24 26 -32 37 -8 12
-41 56 -73 98 -84 112 -138 203 -131 223 4 12 3 14 -3 6 -6 -9 -19 8 -40 55
-88 188 -131 431 -104 582 6 36 14 79 16 95 23 122 143 358 177 347 5 -1 7 1
4 6 -3 5 5 18 18 30 13 11 28 26 32 34 11 18 86 78 97 78 4 0 5 -5 1 -12 -4
-7 -3 -8 5 -4 6 4 9 11 6 16 -8 12 95 58 176 79 102 25 181 25 290 1z m1747
-11 c92 -24 153 -55 146 -72 -3 -8 2 -14 10 -14 8 0 13 5 10 11 -3 6 1 3 9 -6
8 -10 16 -15 19 -13 3 3 25 -13 49 -36 24 -23 35 -35 24 -28 -18 13 -19 13 -6
-3 7 -10 17 -16 21 -13 4 2 18 -7 31 -22 13 -14 18 -23 12 -19 -7 4 -13 2 -13
-3 0 -6 7 -11 16 -11 9 0 12 -5 8 -12 -4 -7 -3 -10 1 -5 9 8 45 -20 45 -36 0
-5 10 -23 22 -39 18 -27 19 -33 8 -52 -12 -18 -11 -19 2 -9 16 14 28 8 28 -14
0 -9 -5 -11 -12 -7 -7 4 -10 4 -6 0 3 -4 9 -6 12 -4 10 5 33 -36 41 -72 4 -19
10 -39 13 -45 3 -5 7 -16 8 -25 2 -8 8 -37 14 -65 6 -27 11 -102 12 -165 0
-92 -5 -135 -26 -215 -31 -123 -79 -248 -96 -253 -8 -3 -10 0 -5 8 5 9 4 11
-3 6 -7 -4 -12 -14 -12 -22 0 -8 5 -12 10 -9 6 3 10 3 10 -1 0 -14 -161 -271
-179 -284 -3 -3 -20 -23 -36 -45 -47 -63 -55 -73 -146 -174 -110 -122 -273
-286 -374 -376 -43 -38 -85 -77 -94 -86 -46 -48 -127 -109 -143 -109 -10 0
-15 -5 -13 -12 6 -16 -71 -81 -85 -73 -6 4 -9 2 -8 -4 2 -6 -25 -32 -58 -58
-76 -60 -208 -165 -253 -203 l-34 -28 -51 35 c-47 33 -78 58 -163 133 -17 15
-29 31 -25 36 4 4 2 4 -4 1 -6 -3 -26 7 -45 23 -19 16 -38 29 -43 30 -5 0 -30
19 -56 43 -26 23 -72 62 -101 86 -178 144 -524 471 -518 489 2 5 33 33 69 62
66 54 77 64 210 186 175 161 398 394 489 512 13 18 28 29 34 25 5 -3 8 -2 5 3
-6 9 1 21 82 135 105 149 188 312 234 458 26 84 59 136 79 124 6 -3 7 -2 4 4
-8 13 141 165 154 158 5 -4 8 -1 7 7 -2 7 38 40 87 73 174 117 368 149 573 94z"/>
</g>
</svg>
